<svg xmlns="http://www.w3.org/2000/svg" width="30" height="31" viewBox="0 0 30 31">
    <g fill="#FFF" fill-rule="nonzero">
        <path d="M2.268 12.57h.682a.842.842 0 0 0-.007.11v13.324h-.464a.847.847 0 0 0-.845.848c0 .468.379.848.845.848h25.07c.467 0 .845-.38.845-.848a.847.847 0 0 0-.845-.848h-.463V12.679a.842.842 0 0 0-.008-.109h.682a1.477 1.477 0 0 0 .876-2.665L15.515.167a.843.843 0 0 0-1.004 0l-13.12 9.74a1.478 1.478 0 0 0 .876 2.664zm13.505 13.434h-1.517V12.679a.842.842 0 0 0-.008-.109h1.533a.842.842 0 0 0-.008.11v13.324zm-6.415 0H7.84V12.679a.842.842 0 0 0-.008-.109h1.533a.842.842 0 0 0-.007.11v13.324zm-4.725 0V13.527H6.15v12.477H4.633zm6.415 0V13.527h1.517v12.477h-1.517zm6.415 0V13.527h1.517v12.477h-1.517zm6.415 0V13.527h1.518v12.477h-1.518zm-1.69-13.325v13.325h-1.517V12.679a.842.842 0 0 0-.008-.109h1.533a.842.842 0 0 0-.008.11zM15.014 1.903L27.1 10.874H2.929l12.085-8.971zM29.137 28.718H.891a.847.847 0 0 0-.845.848c0 .468.379.848.845.848h28.246c.467 0 .845-.38.845-.848a.847.847 0 0 0-.845-.848z"/>
    </g>
</svg>
