<svg xmlns="http://www.w3.org/2000/svg" width="16" height="23" viewBox="0 0 16 23">
    <g fill="#FFF" fill-rule="nonzero">
        <path d="M6.462 11.461H4.086V.777h1.468a2.49 2.49 0 0 0 2.455 2.097A2.49 2.49 0 0 0 10.464.777h1.467v5.947a.388.388 0 0 0 .777 0V5.677l.836.418a.387.387 0 0 0 .49-.124l1.865-2.64a.388.388 0 0 0-.07-.523L12.57.091A.387.387 0 0 0 12.32 0H3.698a.387.387 0 0 0-.25.092L.188 2.808a.388.388 0 0 0-.069.523l1.864 2.64a.388.388 0 0 0 .491.124l.836-.418v6.173c0 .214.174.388.388.388h2.764a.388.388 0 1 0 0-.777zm7.13-6.21l-.884-.443v-3.59l2.35 1.958-1.466 2.075zM8.01 2.097A1.711 1.711 0 0 1 6.345.777h3.327a1.711 1.711 0 0 1-1.663 1.32zM2.425 5.25L.96 3.176l2.35-1.958v3.59l-.885.443z"/>
        <path d="M15.518 7.563H7.71a.388.388 0 0 0-.389.388v13.685c0 .214.174.388.389.388h2.99a.388.388 0 0 0 .388-.367l.526-9.463.526 9.463a.388.388 0 0 0 .388.367h2.99a.388.388 0 0 0 .388-.388V7.95a.388.388 0 0 0-.388-.388zM15.13 9.21h-1.225v-.87h1.225v.87zm-5.03 0v-.87h3.028v.87H10.1zm-.777-.87v.87H8.098v-.87h1.225zm3.572 12.908l-.528-9.496a.388.388 0 0 0-.388-.367h-.73a.388.388 0 0 0-.388.367l-.528 9.496H8.098V9.986h7.032v11.261h-2.235z"/>
    </g>
</svg>
