<svg xmlns="http://www.w3.org/2000/svg" width="18" height="15" viewBox="0 0 18 15">
    <path fill="#FFF" fill-rule="nonzero" d="M1.656 0C.752 0 .015.73.015 1.628H0v11.583c0 .898.736 1.628 1.641 1.628h14.286v-1.752H18V0H1.656zm-.015 13.78a.577.577 0 0 1-.582-.57V3.063c.025.008.057.005.082.013.152.044.31.072.48.075.007 0 .013.003.02.003H14.87v3.214h-3.027c-.913 0-1.655.712-1.655 1.588v1.059c0 .875.742 1.588 1.655 1.588h3.027v3.177H1.641zm10.2-4.236c-.33 0-.596-.237-.596-.53V7.957c0-.292.268-.53.596-.53h5.1v2.118h-5.1zm5.1 2.483h-1.014v-1.424h1.014v1.424zm-1.014-5.66V2.096H1.656c-.29 0-.582-.145-.582-.467a.578.578 0 0 1 .582-.57h15.285v5.31h-1.014z"/>
</svg>
